<?xml version="1.0" encoding="utf-8"?>
<!-- Generator: Adobe Illustrator 26.0.1, SVG Export Plug-In . SVG Version: 6.00 Build 0)  -->
<svg version="1.1" id="Capa_1" xmlns="http://www.w3.org/2000/svg" xmlns:xlink="http://www.w3.org/1999/xlink" x="0px" y="0px"
	 viewBox="0 0 74 74" style="enable-background:new 0 0 74 74;" xml:space="preserve">
<style type="text/css">
	.st0{fill-rule:evenodd;clip-rule:evenodd;fill:url(#SVGID_1_);}
</style>
<linearGradient id="SVGID_1_" gradientUnits="userSpaceOnUse" x1="14.1032" y1="38.6688" x2="62.7914" y2="38.6688">
	<stop  offset="0.1525" style="stop-color:#087F2E"/>
	<stop  offset="0.2265" style="stop-color:#077735"/>
	<stop  offset="0.9151" style="stop-color:#003372"/>
</linearGradient>
<path class="st0" d="M62.8,37.8l-2.1-18.4L56,22.9c-1.5-1.6-3.1-2.9-5-4c-2.5-1.6-5.2-2.6-8-3.2c-2.8-0.6-5.7-0.6-8.6-0.2
	c-2.8,0.5-5.6,1.4-8.1,2.8c-2.5,1.4-4.7,3.2-6.5,5.3c-1.8,2.1-3.3,4.5-4.3,7.2c-2,5.2-2,11.1-0.1,16.2c1.9,5.2,5.6,9.6,10.3,12.2
	c2.3,1.3,4.9,2.2,7.6,2.7c2.6,0.5,5.3,0.4,7.9,0c5.2-1,10-3.9,13.2-7.9c1.7-2,2.9-4.4,3.7-6.8c0.8-2.4,1.2-5,1.1-7.5
	c0,2.5-0.6,5-1.5,7.4c-1,2.3-2.3,4.5-4,6.4c-3.3,3.7-8,6.1-12.8,6.7c-2.4,0.3-4.9,0.2-7.2-0.3c-2.3-0.5-4.6-1.5-6.6-2.8
	c-4-2.6-7-6.6-8.3-11.1c-1.4-4.5-1.1-9.4,0.8-13.6c1.8-4.2,5.2-7.7,9.2-9.6c2-1,4.2-1.6,6.4-1.8c2.2-0.2,4.4,0,6.6,0.5
	c3.4,0.9,6.6,2.8,8.9,5.4l-4.8,3.6L62.8,37.8z"/>
</svg>
