<?xml version="1.0" encoding="utf-8"?>
<!-- Generator: Adobe Illustrator 26.0.1, SVG Export Plug-In . SVG Version: 6.00 Build 0)  -->
<svg version="1.1" id="Capa_1" xmlns="http://www.w3.org/2000/svg" xmlns:xlink="http://www.w3.org/1999/xlink" x="0px" y="0px"
	 viewBox="0 0 74 74" style="enable-background:new 0 0 74 74;" xml:space="preserve">
<style type="text/css">
	.st0{fill-rule:evenodd;clip-rule:evenodd;fill:url(#SVGID_1_);}
</style>
<linearGradient id="SVGID_1_" gradientUnits="userSpaceOnUse" x1="14.1032" y1="38.6688" x2="62.7914" y2="38.6688" gradientTransform="matrix(-0.2914 -0.9566 0.9566 -0.2914 12.6591 86.715)">
	<stop  offset="0.1525" style="stop-color:#087F2E"/>
	<stop  offset="0.2265" style="stop-color:#077735"/>
	<stop  offset="0.9151" style="stop-color:#003372"/>
</linearGradient>
<path class="st0" d="M30.5,15.6l-17,7.4l4.7,3.5c-1.1,1.9-1.9,3.8-2.4,5.9c-0.8,2.8-1,5.8-0.7,8.6c0.3,2.9,1.1,5.7,2.3,8.3
	c1.3,2.6,2.9,4.9,5,6.9c2,2,4.4,3.6,7,4.7c2.6,1.1,5.3,1.8,8.1,2c5.6,0.4,11.2-1.3,15.6-4.6c4.4-3.3,7.5-8.1,8.7-13.4
	c0.6-2.6,0.7-5.3,0.3-8c-0.3-2.6-1.2-5.2-2.3-7.5c-2.4-4.7-6.6-8.4-11.4-10.3c-2.4-1-5-1.5-7.6-1.6c-2.6-0.1-5.1,0.3-7.5,1.1
	c2.4-0.7,5-0.9,7.5-0.7c2.5,0.2,5,0.9,7.3,2c4.5,2.1,8.2,5.8,10.2,10.3c1,2.2,1.6,4.6,1.8,7c0.2,2.4-0.1,4.8-0.8,7.1
	c-1.3,4.6-4.3,8.6-8.2,11.2c-3.9,2.6-8.7,3.7-13.2,3.2c-4.6-0.5-8.8-2.7-11.9-6c-1.6-1.6-2.8-3.5-3.6-5.6c-0.9-2-1.3-4.2-1.4-6.4
	c-0.2-3.5,0.8-7.1,2.5-10.1l4.8,3.6L30.5,15.6z"/>
</svg>
