<?xml version="1.0" encoding="utf-8"?>
<!-- Generator: Adobe Illustrator 26.0.1, SVG Export Plug-In . SVG Version: 6.00 Build 0)  -->
<svg version="1.1" id="Capa_1" xmlns="http://www.w3.org/2000/svg" xmlns:xlink="http://www.w3.org/1999/xlink" x="0px" y="0px"
	 viewBox="0 0 74 74" style="enable-background:new 0 0 74 74;" xml:space="preserve">
<style type="text/css">
	.st0{fill-rule:evenodd;clip-rule:evenodd;fill:url(#SVGID_1_);}
</style>
<linearGradient id="SVGID_1_" gradientUnits="userSpaceOnUse" x1="14.1032" y1="38.6688" x2="62.7914" y2="38.6688" gradientTransform="matrix(6.123234e-17 1 -1 6.123234e-17 77.1161 0.2215)">
	<stop  offset="0.1525" style="stop-color:#087F2E"/>
	<stop  offset="0.2265" style="stop-color:#077735"/>
	<stop  offset="0.9151" style="stop-color:#003372"/>
</linearGradient>
<path class="st0" d="M39.3,63l18.4-2.1l-3.5-4.7c1.6-1.5,2.9-3.1,4-5c1.6-2.5,2.6-5.2,3.2-8c0.6-2.8,0.6-5.7,0.2-8.6
	c-0.5-2.8-1.4-5.6-2.8-8.1c-1.4-2.5-3.2-4.7-5.3-6.5c-2.1-1.8-4.5-3.3-7.2-4.3c-5.2-2-11.1-2-16.2-0.1C25,17.6,20.6,21.3,17.9,26
	c-1.3,2.3-2.2,4.9-2.7,7.6c-0.5,2.6-0.4,5.3,0,7.9c1,5.2,3.9,10,7.9,13.2c2,1.7,4.4,2.9,6.8,3.7c2.4,0.8,5,1.2,7.5,1.1
	c-2.5,0-5-0.6-7.4-1.5c-2.3-1-4.5-2.3-6.4-4c-3.7-3.3-6.1-8-6.7-12.8c-0.3-2.4-0.2-4.9,0.3-7.2c0.5-2.3,1.5-4.6,2.8-6.6
	c2.6-4,6.6-7,11.1-8.3c4.5-1.4,9.4-1.1,13.6,0.8c4.2,1.8,7.7,5.2,9.6,9.2c1,2,1.6,4.2,1.8,6.4c0.2,2.2,0,4.4-0.5,6.6
	c-0.9,3.4-2.8,6.6-5.4,8.9L46.7,46L39.3,63z"/>
</svg>
