<?xml version="1.0" encoding="utf-8"?>
<!-- Generator: Adobe Illustrator 26.0.1, SVG Export Plug-In . SVG Version: 6.00 Build 0)  -->
<svg version="1.1" id="Capa_1" xmlns="http://www.w3.org/2000/svg" xmlns:xlink="http://www.w3.org/1999/xlink" x="0px" y="0px"
	 viewBox="0 0 74 74" style="enable-background:new 0 0 74 74;" xml:space="preserve">
<style type="text/css">
	.st0{fill-rule:evenodd;clip-rule:evenodd;fill:url(#SVGID_1_);}
</style>
<linearGradient id="SVGID_1_" gradientUnits="userSpaceOnUse" x1="14.1032" y1="38.6688" x2="62.7914" y2="38.6688" gradientTransform="matrix(-0.9995 3.083995e-02 -3.083995e-02 -0.9995 78.0689 76.1335)">
	<stop  offset="0.1525" style="stop-color:#087F2E"/>
	<stop  offset="0.2265" style="stop-color:#077735"/>
	<stop  offset="0.9151" style="stop-color:#003372"/>
</linearGradient>
<path class="st0" d="M14.1,40.3l2.7,18.3l4.6-3.6c1.5,1.5,3.2,2.8,5.1,3.9c2.5,1.5,5.3,2.5,8.1,2.9c2.9,0.5,5.8,0.5,8.6,0
	c2.8-0.5,5.5-1.5,8-3c2.4-1.5,4.6-3.3,6.3-5.5c1.8-2.2,3.2-4.6,4-7.3c1.8-5.3,1.6-11.2-0.4-16.2c-2-5.1-5.9-9.4-10.6-11.9
	c-2.4-1.3-5-2.1-7.6-2.4c-2.6-0.4-5.3-0.2-7.9,0.3c-5.2,1.1-9.9,4.2-13,8.3c-1.6,2.1-2.8,4.4-3.5,6.9c-0.8,2.5-1.1,5-0.9,7.6
	c0-2.5,0.4-5.1,1.3-7.4c0.9-2.4,2.2-4.6,3.8-6.5c3.2-3.8,7.8-6.4,12.6-7.1c2.4-0.4,4.9-0.4,7.3,0.1c2.4,0.4,4.6,1.3,6.7,2.6
	c4.1,2.4,7.2,6.4,8.7,10.8c1.5,4.5,1.3,9.4-0.4,13.6c-1.7,4.3-4.9,7.8-8.9,9.9c-2,1.1-4.1,1.7-6.3,2c-2.2,0.3-4.4,0.2-6.6-0.3
	c-3.5-0.8-6.7-2.6-9.1-5.1l4.7-3.7L14.1,40.3z"/>
</svg>
