<svg width="296" height="74" viewBox="0 0 296 74" fill="none" xmlns="http://www.w3.org/2000/svg">
<g clip-path="url(#clip0_1_2)">
<path fill-rule="evenodd" clip-rule="evenodd" d="M62.8 37.8L60.7 19.4L56 22.9C54.5 21.3 52.9 20 51 18.9C48.5 17.3 45.8 16.3 43 15.7C40.2 15.1 37.3 15.1 34.4 15.5C31.6 16 28.8 16.9 26.3 18.3C23.8 19.7 21.6 21.5 19.8 23.6C18 25.7 16.5 28.1 15.5 30.8C13.5 36 13.5 41.9 15.4 47C17.3 52.2 21 56.6 25.7 59.2C28 60.5 30.6 61.4 33.3 61.9C35.9 62.4 38.6 62.3 41.2 61.9C46.4 60.9 51.2 58 54.4 54C56.1 52 57.3 49.6 58.1 47.2C58.9 44.8 59.3 42.2 59.2 39.7C59.2 42.2 58.6 44.7 57.7 47.1C56.7 49.4 55.4 51.6 53.7 53.5C50.4 57.2 45.7 59.6 40.9 60.2C38.5 60.5 36 60.4 33.7 59.9C31.4 59.4 29.1 58.4 27.1 57.1C23.1 54.5 20.1 50.5 18.8 46C17.4 41.5 17.7 36.6 19.6 32.4C21.4 28.2 24.8 24.7 28.8 22.8C30.8 21.8 33 21.2 35.2 21C37.4 20.8 39.6 21 41.8 21.5C45.2 22.4 48.4 24.3 50.7 26.9L45.9 30.5L62.8 37.8Z" fill="url(#paint0_linear_1_2)"/>
<path fill-rule="evenodd" clip-rule="evenodd" d="M113.3 63L131.7 60.9L128.2 56.2C129.8 54.7 131.1 53.1 132.2 51.2C133.8 48.7 134.8 46 135.4 43.2C136 40.4 136 37.5 135.6 34.6C135.1 31.8 134.2 29 132.8 26.5C131.4 24 129.6 21.8 127.5 20C125.4 18.2 123 16.7 120.3 15.7C115.1 13.7 109.2 13.7 104.1 15.6C99 17.6 94.6 21.3 91.9 26C90.6 28.3 89.7 30.9 89.2 33.6C88.7 36.2 88.8 38.9 89.2 41.5C90.2 46.7 93.1 51.5 97.1 54.7C99.1 56.4 101.5 57.6 103.9 58.4C106.3 59.2 108.9 59.6 111.4 59.5C108.9 59.5 106.4 58.9 104 58C101.7 57 99.5 55.7 97.6 54C93.9 50.7 91.5 46 90.9 41.2C90.6 38.8 90.7 36.3 91.2 34C91.7 31.7 92.7 29.4 94 27.4C96.6 23.4 100.6 20.4 105.1 19.1C109.6 17.7 114.5 18 118.7 19.9C122.9 21.7 126.4 25.1 128.3 29.1C129.3 31.1 129.9 33.3 130.1 35.5C130.3 37.7 130.1 39.9 129.6 42.1C128.7 45.5 126.8 48.7 124.2 51L120.7 46L113.3 63Z" fill="url(#paint1_linear_1_2)"/>
<path fill-rule="evenodd" clip-rule="evenodd" d="M162.1 40.3L164.8 58.6L169.4 55C170.9 56.5 172.6 57.8 174.5 58.9C177 60.4 179.8 61.4 182.6 61.8C185.5 62.3 188.4 62.3 191.2 61.8C194 61.3 196.7 60.3 199.2 58.8C201.6 57.3 203.8 55.5 205.5 53.3C207.3 51.1 208.7 48.7 209.5 46C211.3 40.7 211.1 34.8 209.1 29.8C207.1 24.7 203.2 20.4 198.5 17.9C196.1 16.6 193.5 15.8 190.9 15.5C188.3 15.1 185.6 15.3 183 15.8C177.8 16.9 173.1 20 170 24.1C168.4 26.2 167.2 28.5 166.5 31C165.7 33.5 165.4 36 165.6 38.6C165.6 36.1 166 33.5 166.9 31.2C167.8 28.8 169.1 26.6 170.7 24.7C173.9 20.9 178.5 18.3 183.3 17.6C185.7 17.2 188.2 17.2 190.6 17.7C193 18.1 195.2 19 197.3 20.3C201.4 22.7 204.5 26.7 206 31.1C207.5 35.6 207.3 40.5 205.6 44.7C203.9 49 200.7 52.5 196.7 54.6C194.7 55.7 192.6 56.3 190.4 56.6C188.2 56.9 186 56.8 183.8 56.3C180.3 55.5 177.1 53.7 174.7 51.2L179.4 47.5L162.1 40.3Z" fill="url(#paint2_linear_1_2)"/>
<path fill-rule="evenodd" clip-rule="evenodd" d="M252.5 15.6L235.5 23L240.2 26.5C239.1 28.4 238.3 30.3 237.8 32.4C237 35.2 236.8 38.2 237.1 41C237.4 43.9 238.2 46.7 239.4 49.3C240.7 51.9 242.3 54.2 244.4 56.2C246.4 58.2 248.8 59.8 251.4 60.9C254 62 256.7 62.7 259.5 62.9C265.1 63.3 270.7 61.6 275.1 58.3C279.5 55 282.6 50.2 283.8 44.9C284.4 42.3 284.5 39.6 284.1 36.9C283.8 34.3 282.9 31.7 281.8 29.4C279.4 24.7 275.2 21 270.4 19.1C268 18.1 265.4 17.6 262.8 17.5C260.2 17.4 257.7 17.8 255.3 18.6C257.7 17.9 260.3 17.7 262.8 17.9C265.3 18.1 267.8 18.8 270.1 19.9C274.6 22 278.3 25.7 280.3 30.2C281.3 32.4 281.9 34.8 282.1 37.2C282.3 39.6 282 42 281.3 44.3C280 48.9 277 52.9 273.1 55.5C269.2 58.1 264.4 59.2 259.9 58.7C255.3 58.2 251.1 56 248 52.7C246.4 51.1 245.2 49.2 244.4 47.1C243.5 45.1 243.1 42.9 243 40.7C242.8 37.2 243.8 33.6 245.5 30.6L250.3 34.2L252.5 15.6Z" fill="url(#paint3_linear_1_2)"/>
</g>
<defs>
<linearGradient id="paint0_linear_1_2" x1="14.1032" y1="38.6688" x2="62.7914" y2="38.6688" gradientUnits="userSpaceOnUse">
<stop offset="0.1525" stop-color="#087F2E"/>
<stop offset="0.2265" stop-color="#077735"/>
<stop offset="0.9151" stop-color="#003372"/>
</linearGradient>
<linearGradient id="paint1_linear_1_2" x1="112.447" y1="14.3247" x2="112.447" y2="63.0129" gradientUnits="userSpaceOnUse">
<stop offset="0.1525" stop-color="#087F2E"/>
<stop offset="0.2265" stop-color="#077735"/>
<stop offset="0.9151" stop-color="#003372"/>
</linearGradient>
<linearGradient id="paint2_linear_1_2" x1="210.78" y1="37.919" x2="162.116" y2="39.4205" gradientUnits="userSpaceOnUse">
<stop offset="0.1525" stop-color="#087F2E"/>
<stop offset="0.2265" stop-color="#077735"/>
<stop offset="0.9151" stop-color="#003372"/>
</linearGradient>
<linearGradient id="paint3_linear_1_2" x1="267.54" y1="61.9558" x2="253.352" y2="15.3807" gradientUnits="userSpaceOnUse">
<stop offset="0.1525" stop-color="#087F2E"/>
<stop offset="0.2265" stop-color="#077735"/>
<stop offset="0.9151" stop-color="#003372"/>
</linearGradient>
<clipPath id="clip0_1_2">
<rect width="296" height="74" fill="white"/>
</clipPath>
</defs>
</svg>
